Land_normalized_Precision Landing17_filtered_grf
version=1
nRows=23
nColumns=37
inDegrees=yes
endheader
time		1_ground_force_vx		1_ground_force_vy		1_ground_force_vz		1_ground_force_px		1_ground_force_py		1_ground_force_pz		1_ground_torque_x		1_ground_torque_y		1_ground_torque_z		2_ground_force_vx		2_ground_force_vy		2_ground_force_vz		2_ground_force_px		2_ground_force_py		2_ground_force_pz		2_ground_torque_x		2_ground_torque_y		2_ground_torque_z		3_ground_force_vx		3_ground_force_vy		3_ground_force_vz		3_ground_force_px		3_ground_force_py		3_ground_force_pz		3_ground_torque_x		3_ground_torque_y		3_ground_torque_z		4_ground_force_vx		4_ground_force_vy		4_ground_force_vz		4_ground_force_px		4_ground_force_py		4_ground_force_pz		4_ground_torque_x		4_ground_torque_y		4_ground_torque_z		
1.347833		4.381468		971.344111		88.554378		0.089362		0.000000		0.305593		0.075231		16.677665		1.520442		14.384758		648.427088		73.605738		-0.131087		0.000000		0.314698		0.306746		13.827069		1.569579		5.555984		-0.256750		-0.578077		0.353711		1.255261		1.891177		0.007413		-0.000342		-0.000771		-20.195323		0.589321		-2.335414		-0.288842		1.264783		1.901230		0.018578		-0.000542		0.002148		
1.351066		5.822390		966.395355		84.247832		0.089171		0.000000		0.305423		0.101617		16.866127		1.470343		13.246738		651.108139		71.972997		-0.130716		0.000000		0.314513		0.274331		13.483957		1.490509		5.426158		-0.488593		-0.634194		0.353749		1.255257		1.891160		0.004995		-0.000450		-0.000583		-20.133862		0.549486		-2.208114		-0.288811		1.264792		1.901205		0.017438		-0.000476		0.001913		
1.354298		7.307324		957.077389		82.293668		0.088752		0.000000		0.304897		0.129480		16.958305		1.458149		12.180302		653.338328		70.854691		-0.130351		0.000000		0.314257		0.246751		13.235346		1.435379		5.310051		-0.685808		-0.661416		0.353772		1.255244		1.891153		0.002180		-0.000281		-0.000271		-20.049209		0.514668		-2.049267		-0.288788		1.264804		1.901186		0.014546		-0.000374		0.001487		
1.357530		8.784413		944.092551		82.733652		0.088155		0.000000		0.304109		0.157663		16.944555		1.484902		10.927250		655.095608		69.997374		-0.129966		0.000000		0.313976		0.217164		13.019107		1.391100		5.238937		-0.798169		-0.662015		0.353778		1.255228		1.891155		0.000018		-0.000003		-0.000002		-19.957666		0.500473		-1.902265		-0.288774		1.264817		1.901172		0.010575		-0.000265		0.001008		
1.360763		10.197594		928.219277		85.443628		0.087440		0.000000		0.303165		0.184957		16.835248		1.549709		9.417533		656.321206		69.378316		-0.129575		0.000000		0.313682		0.184023		12.824674		1.355670		5.237125		-0.809544		-0.634447		0.353763		1.255216		1.891166		-0.000692		0.000107		0.000083		-19.887648		0.514653		-1.801923		-0.288772		1.264831		1.901163		0.006555		-0.000170		0.000594		
1.363995		11.513119		910.269275		90.030666		0.086660		0.000000		0.302144		0.210767		16.664018		1.648164		7.833914		656.890861		69.218323		-0.129230		0.000000		0.313346		0.151477		12.701645		1.338405		5.311824		-0.736888		-0.577713		0.353739		1.255207		1.891180		0.000219		-0.000031		-0.000024		-19.864600		0.555024		-1.760318		-0.288779		1.264843		1.901158		0.003445		-0.000096		0.000305		
1.367227		12.686398		890.907049		95.909862		0.085852		0.000000		0.301066		0.234126		16.441527		1.770006		6.457241		656.620005		69.778232		-0.128988		0.000000		0.312920		0.125034		12.714511		1.351157		5.453407		-0.613572		-0.497391		0.353710		1.255198		1.891193		0.002610		-0.000293		-0.000238		-19.905087		0.612419		-1.770792		-0.288793		1.264851		1.901155		0.001877		-0.000058		0.000167		
1.370460		13.656369		870.713570		102.364310		0.085034		0.000000		0.299909		0.253509		16.163445		1.900235		5.433810		655.348165		71.071645		-0.128857		0.000000		0.312386		0.106766		12.876636		1.396456		5.635247		-0.479840		-0.408611		0.353684		1.255185		1.891203		0.006188		-0.000527		-0.000449		-20.013313		0.673652		-1.820505		-0.288809		1.264853		1.901158		0.002107		-0.000071		0.000192		
1.373692		14.380267		850.193654		108.780816		0.084214		0.000000		0.298640		0.267956		15.842135		2.026977		4.674354		652.955995		72.812509		-0.128795		0.000000		0.311761		0.094018		13.133474		1.464548		5.824290		-0.371952		-0.329683		0.353664		1.255167		1.891209		0.010481		-0.000669		-0.000593		-20.180689		0.725592		-1.905258		-0.288826		1.264848		1.901167		0.004122		-0.000149		0.000389		
1.376924		14.872667		829.861973		114.757481		0.083403		0.000000		0.297260		0.277845		15.503140		2.143853		3.947443		649.464136		74.565716		-0.128737		0.000000		0.311091		0.081410		13.394442		1.537834		5.992136		-0.313694		-0.275719		0.353646		1.255147		1.891214		0.014679		-0.000769		-0.000675		-20.378921		0.757324		-2.028191		-0.288842		1.264837		1.901184		0.007542		-0.000281		0.000751		
1.380157		15.165642		810.257638		120.110313		0.082625		0.000000		0.295812		0.283752		15.160075		2.247288		3.100098		645.031196		76.033628		-0.128644		0.000000		0.310420		0.065348		13.597248		1.602791		6.122199		-0.309650		-0.258418		0.353628		1.255130		1.891220		0.017747		-0.000897		-0.000749		-20.563782		0.762279		-2.187827		-0.288857		1.264823		1.901205		0.011644		-0.000432		0.001239		
1.383389		15.263939		791.906182		124.829600		0.081916		0.000000		0.294366		0.285690		14.821794		2.336386		2.192563		639.931476		77.222735		-0.128531		0.000000		0.309761		0.047098		13.746573		1.658849		6.208158		-0.341108		-0.286712		0.353603		1.255124		1.891231		0.018857		-0.001036		-0.000871		-20.686353		0.742220		-2.360658		-0.288873		1.264809		1.901231		0.015414		-0.000553		0.001759		
1.386621		15.146345		775.259207		128.996715		0.081293		0.000000		0.292994		0.283319		14.501565		2.412940		1.444521		634.466418		78.382761		-0.128443		0.000000		0.309099		0.031648		13.900848		1.717332		6.247255		-0.373811		-0.361678		0.353570		1.255128		1.891244		0.017792		-0.001064		-0.001030		-20.707682		0.707533		-2.498749		-0.288890		1.264799		1.901256		0.017857		-0.000610		0.002155		
1.389854		14.816662		760.626349		132.704908		0.080750		0.000000		0.291734		0.276757		14.207568		2.478764		1.052946		628.919453		79.790140		-0.128415		0.000000		0.308405		0.023644		14.122441		1.791701		6.237878		-0.374703		-0.469333		0.353528		1.255142		1.891263		0.015019		-0.000902		-0.001130		-20.613630		0.673100		-2.550015		-0.288909		1.264794		1.901279		0.018422		-0.000601		0.002279		
1.393086		14.327912		748.167954		136.004406		0.080258		0.000000		0.290576		0.267034		13.943853		2.534758		1.041834		623.512031		81.545455		-0.128448		0.000000		0.307670		0.024115		14.431700		1.887444		6.179357		-0.331431		-0.579217		0.353481		1.255161		1.891286		0.011450		-0.000614		-0.001073		-20.424532		0.652390		-2.489971		-0.288934		1.264796		1.901300		0.017235		-0.000550		0.002101		
1.396318		13.755354		737.952370		138.899904		0.079787		0.000000		0.289504		0.255844		13.725631		2.583485		1.266759		618.360779		83.533256		-0.128500		0.000000		0.306905		0.030320		14.799991		1.999317		6.072499		-0.262719		-0.655867		0.353431		1.255177		1.891313		0.008173		-0.000354		-0.000883		-20.187673		0.652774		-2.344114		-0.288964		1.264804		1.901320		0.014906		-0.000482		0.001731		
1.399551		13.158391		729.966424		141.365494		0.079336		0.000000		0.288531		0.244556		13.566792		2.627349		1.548436		613.469541		85.540884		-0.128523		0.000000		0.306124		0.038313		15.179137		2.116551		5.923772		-0.210233		-0.678991		0.353382		1.255187		1.891344		0.006115		-0.000217		-0.000701		-19.956020		0.671595		-2.181031		-0.289002		1.264812		1.901343		0.012118		-0.000408		0.001324		
1.402783		12.571043		724.134895		143.324525		0.078940		0.000000		0.287702		0.233660		13.459622		2.663998		1.811009		608.781737		87.421535		-0.128499		0.000000		0.305331		0.046226		15.538548		2.231359		5.747870		-0.214360		-0.656291		0.353335		1.255189		1.891378		0.005677		-0.000212		-0.000648		-19.768481		0.696080		-2.078364		-0.289047		1.264822		1.901371		0.009334		-0.000329		0.000981		
1.406015		12.020237		720.222034		144.663905		0.078640		0.000000		0.287044		0.223475		13.390048		2.689527		2.096900		604.223507		89.160876		-0.128451		0.000000		0.304519		0.055101		15.877467		2.342924		5.569780		-0.288806		-0.620401		0.353288		1.255185		1.891414		0.006526		-0.000338		-0.000727		-19.641378		0.707848		-2.084818		-0.289094		1.264831		1.901405		0.006771		-0.000244		0.000719		
1.409247		11.541107		717.880797		145.254695		0.078442		0.000000		0.286548		0.214900		13.367225		2.704700		2.467196		599.720279		90.804095		-0.128412		0.000000		0.303676		0.066674		16.206377		2.453830		5.424200		-0.411051		-0.606439		0.353241		1.255180		1.891448		0.007906		-0.000599		-0.000884		-19.573648		0.691643		-2.201366		-0.289143		1.264838		1.901443		0.004551		-0.000161		0.000512		
1.412480		11.171244		716.638009		145.019953		0.078315		0.000000		0.286169		0.208947		13.403968		2.712447		2.896824		595.190813		92.338764		-0.128388		0.000000		0.302796		0.080407		16.520526		2.563020		5.345881		-0.528049		-0.626859		0.353195		1.255172		1.891478		0.009150		-0.000904		-0.001073		-19.551537		0.644791		-2.381466		-0.289190		1.264844		1.901480		0.002945		-0.000097		0.000359		
1.415712		10.950380		716.051330		143.913237		0.078220		0.000000		0.285860		0.206281		13.488840		2.711009		3.273083		590.551463		93.635278		-0.128349		0.000000		0.301888		0.093059		16.790029		2.662161		5.354929		-0.580851		-0.663453		0.353154		1.255165		1.891498		0.010003		-0.001085		-0.001239		-19.555384		0.578148		-2.561117		-0.289232		1.264848		1.901514		0.002419		-0.000072		0.000317		
1.418944		10.926041		715.785082		141.956403		0.078134		0.000000		0.285592		0.207604		13.600488		2.697284		3.486559		585.726730		94.517700		-0.128245		0.000000		0.300975		0.101063		16.978225		2.739748		5.444301		-0.533306		-0.682704		0.353121		1.255156		1.891510		0.010459		-0.001024		-0.001312		-19.564809		0.510061		-2.687616		-0.289270		1.264851		1.901543		0.003259		-0.000085		0.000447		
